<mxfile host="app.diagrams.net" agent="Mozilla/5.0 (Windows NT 10.0; Win64; x64) AppleWebKit/537.36 (KHTML, like Gecko) Chrome/132.0.0.0 Safari/537.36" version="26.0.10">
  <diagram name="PÃ¡gina-1" id="5I0bA7C_jx-wCwLGN1Kf">
    <mxGraphModel dx="1674" dy="1475" grid="1" gridSize="10" guides="1" tooltips="1" connect="1" arrows="1" fold="1" page="1" pageScale="1" pageWidth="827" pageHeight="1169" math="0" shadow="0">
      <root>
        <mxCell id="0" />
        <mxCell id="1" parent="0" />
        <mxCell id="F7ipalZtgVrwN4CxXCbs-35" value="" style="shape=folder;fontStyle=1;spacingTop=10;tabWidth=40;tabHeight=14;tabPosition=left;html=1;whiteSpace=wrap;" parent="1" vertex="1">
          <mxGeometry x="-250" y="-40" width="1120" height="740" as="geometry" />
        </mxCell>
        <mxCell id="F7ipalZtgVrwN4CxXCbs-1" value="Paciente" style="swimlane;fontStyle=1;align=center;verticalAlign=top;childLayout=stackLayout;horizontal=1;startSize=26;horizontalStack=0;resizeParent=1;resizeParentMax=0;resizeLast=0;collapsible=1;marginBottom=0;whiteSpace=wrap;html=1;" parent="1" vertex="1">
          <mxGeometry x="-210" y="30" width="300" height="120" as="geometry" />
        </mxCell>
        <mxCell id="F7ipalZtgVrwN4CxXCbs-3" value="" style="line;strokeWidth=1;fillColor=none;align=left;verticalAlign=middle;spacingTop=-1;spacingLeft=3;spacingRight=3;rotatable=0;labelPosition=right;points=[];portConstraint=eastwest;strokeColor=inherit;" parent="F7ipalZtgVrwN4CxXCbs-1" vertex="1">
          <mxGeometry y="26" width="300" height="24" as="geometry" />
        </mxCell>
        <mxCell id="F7ipalZtgVrwN4CxXCbs-4" value="+ Paciente(nome: String, Cpf String, dataNascimento : LocalDate): void&lt;div&gt;&lt;span style=&quot;background-color: transparent;&quot;&gt;+ getHistoricoConsultas(): List&amp;lt;Consulta&amp;gt;&lt;/span&gt;&lt;div&gt;+ getHistoricoExames(): List&amp;lt;Exame&amp;gt;&lt;/div&gt;&lt;div&gt;&lt;br&gt;&lt;/div&gt;&lt;/div&gt;" style="text;strokeColor=none;fillColor=none;align=left;verticalAlign=top;spacingLeft=4;spacingRight=4;overflow=hidden;rotatable=0;points=[[0,0.5],[1,0.5]];portConstraint=eastwest;whiteSpace=wrap;html=1;" parent="F7ipalZtgVrwN4CxXCbs-1" vertex="1">
          <mxGeometry y="50" width="300" height="70" as="geometry" />
        </mxCell>
        <mxCell id="F7ipalZtgVrwN4CxXCbs-5" value="Medicos" style="swimlane;fontStyle=1;align=center;verticalAlign=top;childLayout=stackLayout;horizontal=1;startSize=20;horizontalStack=0;resizeParent=1;resizeParentMax=0;resizeLast=0;collapsible=1;marginBottom=0;whiteSpace=wrap;html=1;" parent="1" vertex="1">
          <mxGeometry x="540" y="50" width="250" height="220" as="geometry" />
        </mxCell>
        <mxCell id="F7ipalZtgVrwN4CxXCbs-6" value="- CRM: String&lt;div&gt;- especialidade: String&lt;/div&gt;&lt;div&gt;&lt;br&gt;&lt;/div&gt;" style="text;strokeColor=none;fillColor=none;align=left;verticalAlign=top;spacingLeft=4;spacingRight=4;overflow=hidden;rotatable=0;points=[[0,0.5],[1,0.5]];portConstraint=eastwest;whiteSpace=wrap;html=1;" parent="F7ipalZtgVrwN4CxXCbs-5" vertex="1">
          <mxGeometry y="20" width="250" height="50" as="geometry" />
        </mxCell>
        <mxCell id="F7ipalZtgVrwN4CxXCbs-7" value="" style="line;strokeWidth=1;fillColor=none;align=left;verticalAlign=middle;spacingTop=-1;spacingLeft=3;spacingRight=3;rotatable=0;labelPosition=right;points=[];portConstraint=eastwest;strokeColor=inherit;" parent="F7ipalZtgVrwN4CxXCbs-5" vertex="1">
          <mxGeometry y="70" width="250" height="8" as="geometry" />
        </mxCell>
        <mxCell id="F7ipalZtgVrwN4CxXCbs-8" value="+ Medico(nome: String, Cpf String, dataNascimento : LocalDate, crm: String , especialidade: String ): void&lt;div&gt;+ verificarDisponibilidade(LocalDate data, LocalTime horario): boolean&lt;/div&gt;&lt;div&gt;&lt;div&gt;+ verificarEspecialidade(String especialidadeRequerida): boolean&lt;/div&gt;&lt;div&gt;&amp;nbsp;+ getHistoricoConsultasAtendidas(): List&amp;lt;Consulta&amp;gt;&lt;/div&gt;&lt;/div&gt;" style="text;strokeColor=none;fillColor=none;align=left;verticalAlign=top;spacingLeft=4;spacingRight=4;overflow=hidden;rotatable=0;points=[[0,0.5],[1,0.5]];portConstraint=eastwest;whiteSpace=wrap;html=1;" parent="F7ipalZtgVrwN4CxXCbs-5" vertex="1">
          <mxGeometry y="78" width="250" height="142" as="geometry" />
        </mxCell>
        <mxCell id="F7ipalZtgVrwN4CxXCbs-9" value="Pessoa" style="swimlane;fontStyle=1;align=center;verticalAlign=top;childLayout=stackLayout;horizontal=1;startSize=26;horizontalStack=0;resizeParent=1;resizeParentMax=0;resizeLast=0;collapsible=1;marginBottom=0;whiteSpace=wrap;html=1;" parent="1" vertex="1">
          <mxGeometry x="170" y="30" width="260" height="280" as="geometry" />
        </mxCell>
        <mxCell id="F7ipalZtgVrwN4CxXCbs-10" value="- nome: String&lt;div&gt;- CPF : String&lt;/div&gt;&lt;div&gt;- dataNascimento: LocalDate&lt;/div&gt;&lt;div&gt;&lt;div&gt;- List&amp;lt;Consulta&amp;gt; historicoConsultas&lt;/div&gt;&lt;div&gt;- List&amp;lt;Exame&amp;gt; historicoExames&lt;/div&gt;&lt;div&gt;- List&amp;lt;Pagamento&amp;gt; pagamentos&lt;/div&gt;&lt;/div&gt;" style="text;strokeColor=none;fillColor=none;align=left;verticalAlign=top;spacingLeft=4;spacingRight=4;overflow=hidden;rotatable=0;points=[[0,0.5],[1,0.5]];portConstraint=eastwest;whiteSpace=wrap;html=1;" parent="F7ipalZtgVrwN4CxXCbs-9" vertex="1">
          <mxGeometry y="26" width="260" height="94" as="geometry" />
        </mxCell>
        <mxCell id="F7ipalZtgVrwN4CxXCbs-11" value="" style="line;strokeWidth=1;fillColor=none;align=left;verticalAlign=middle;spacingTop=-1;spacingLeft=3;spacingRight=3;rotatable=0;labelPosition=right;points=[];portConstraint=eastwest;strokeColor=inherit;" parent="F7ipalZtgVrwN4CxXCbs-9" vertex="1">
          <mxGeometry y="120" width="260" height="8" as="geometry" />
        </mxCell>
        <mxCell id="F7ipalZtgVrwN4CxXCbs-12" value="+ Pesso(nome : String, cpf: String, dataNascimento: LocalDate): void&lt;div&gt;&lt;div&gt;+ getNome(): String&lt;/div&gt;&lt;div&gt;+ getCpf(): String&lt;/div&gt;&lt;div&gt;+ getDataNascimento(): LocalDate&lt;/div&gt;&lt;/div&gt;&lt;div&gt;&lt;div&gt;+ adicionarConsulta(Consulta consulta): void&lt;/div&gt;&lt;div&gt;+ adicionarExame(Exame exame): void&lt;/div&gt;&lt;div&gt;&amp;nbsp;+ getPagamentosPendentes(): List&amp;lt;Pagamento&amp;gt;&lt;/div&gt;&lt;/div&gt;" style="text;strokeColor=none;fillColor=none;align=left;verticalAlign=top;spacingLeft=4;spacingRight=4;overflow=hidden;rotatable=0;points=[[0,0.5],[1,0.5]];portConstraint=eastwest;whiteSpace=wrap;html=1;" parent="F7ipalZtgVrwN4CxXCbs-9" vertex="1">
          <mxGeometry y="128" width="260" height="152" as="geometry" />
        </mxCell>
        <mxCell id="F7ipalZtgVrwN4CxXCbs-14" value="Consulta" style="swimlane;fontStyle=1;align=center;verticalAlign=top;childLayout=stackLayout;horizontal=1;startSize=26;horizontalStack=0;resizeParent=1;resizeParentMax=0;resizeLast=0;collapsible=1;marginBottom=0;whiteSpace=wrap;html=1;" parent="1" vertex="1">
          <mxGeometry x="-190" y="170" width="240" height="240" as="geometry" />
        </mxCell>
        <mxCell id="F7ipalZtgVrwN4CxXCbs-15" value="- horarioConsulta: LocalTime&lt;div&gt;- duracao : int&lt;br&gt;&lt;div&gt;- dataConsulta: LocalDate&amp;nbsp;&lt;/div&gt;&lt;div&gt;-&amp;nbsp; paciente:&amp;nbsp;&lt;span style=&quot;background-color: transparent; color: light-dark(rgb(0, 0, 0), rgb(255, 255, 255));&quot;&gt;Paciente&lt;/span&gt;&lt;/div&gt;&lt;div&gt;- medico: Medico&lt;br&gt;&lt;div&gt;-&lt;span style=&quot;background-color: transparent;&quot;&gt;&amp;nbsp;List&amp;lt;Exame&amp;gt; examesPrescritos&lt;/span&gt;&lt;/div&gt;&lt;div&gt;- List&amp;lt;String&amp;gt; medicamentosPrescritos&lt;/div&gt;&lt;/div&gt;&lt;div&gt;- valorConsulta: double&lt;/div&gt;&lt;/div&gt;" style="text;strokeColor=none;fillColor=none;align=left;verticalAlign=top;spacingLeft=4;spacingRight=4;overflow=hidden;rotatable=0;points=[[0,0.5],[1,0.5]];portConstraint=eastwest;whiteSpace=wrap;html=1;" parent="F7ipalZtgVrwN4CxXCbs-14" vertex="1">
          <mxGeometry y="26" width="240" height="124" as="geometry" />
        </mxCell>
        <mxCell id="F7ipalZtgVrwN4CxXCbs-16" value="" style="line;strokeWidth=1;fillColor=none;align=left;verticalAlign=middle;spacingTop=-1;spacingLeft=3;spacingRight=3;rotatable=0;labelPosition=right;points=[];portConstraint=eastwest;strokeColor=inherit;" parent="F7ipalZtgVrwN4CxXCbs-14" vertex="1">
          <mxGeometry y="150" width="240" height="8" as="geometry" />
        </mxCell>
        <mxCell id="F7ipalZtgVrwN4CxXCbs-17" value="+ Consulta(horarioConsulta, dataConsulta, paciente, medico): void&lt;div&gt;&lt;div&gt;+ prescreverExame(Exame exame): void&lt;/div&gt;&lt;div&gt;+ prescreverMedicamento(String medicamento): void&lt;/div&gt;&lt;/div&gt;" style="text;strokeColor=none;fillColor=none;align=left;verticalAlign=top;spacingLeft=4;spacingRight=4;overflow=hidden;rotatable=0;points=[[0,0.5],[1,0.5]];portConstraint=eastwest;whiteSpace=wrap;html=1;" parent="F7ipalZtgVrwN4CxXCbs-14" vertex="1">
          <mxGeometry y="158" width="240" height="82" as="geometry" />
        </mxCell>
        <mxCell id="F7ipalZtgVrwN4CxXCbs-19" value="Exame" style="swimlane;fontStyle=1;align=center;verticalAlign=top;childLayout=stackLayout;horizontal=1;startSize=26;horizontalStack=0;resizeParent=1;resizeParentMax=0;resizeLast=0;collapsible=1;marginBottom=0;whiteSpace=wrap;html=1;" parent="1" vertex="1">
          <mxGeometry x="110" y="430" width="180" height="140" as="geometry" />
        </mxCell>
        <mxCell id="F7ipalZtgVrwN4CxXCbs-20" value="- tipo: String&lt;div&gt;- dataRealizacao: LocalDate&lt;/div&gt;&lt;div&gt;- resultado: String&lt;/div&gt;&lt;div&gt;- custo: double&lt;/div&gt;" style="text;strokeColor=none;fillColor=none;align=left;verticalAlign=top;spacingLeft=4;spacingRight=4;overflow=hidden;rotatable=0;points=[[0,0.5],[1,0.5]];portConstraint=eastwest;whiteSpace=wrap;html=1;" parent="F7ipalZtgVrwN4CxXCbs-19" vertex="1">
          <mxGeometry y="26" width="180" height="64" as="geometry" />
        </mxCell>
        <mxCell id="F7ipalZtgVrwN4CxXCbs-21" value="" style="line;strokeWidth=1;fillColor=none;align=left;verticalAlign=middle;spacingTop=-1;spacingLeft=3;spacingRight=3;rotatable=0;labelPosition=right;points=[];portConstraint=eastwest;strokeColor=inherit;" parent="F7ipalZtgVrwN4CxXCbs-19" vertex="1">
          <mxGeometry y="90" width="180" height="8" as="geometry" />
        </mxCell>
        <mxCell id="F7ipalZtgVrwN4CxXCbs-22" value="+ Exame(tipo, dataRealizacao, resultado, custo): void&lt;div&gt;&lt;br&gt;&lt;/div&gt;" style="text;strokeColor=none;fillColor=none;align=left;verticalAlign=top;spacingLeft=4;spacingRight=4;overflow=hidden;rotatable=0;points=[[0,0.5],[1,0.5]];portConstraint=eastwest;whiteSpace=wrap;html=1;" parent="F7ipalZtgVrwN4CxXCbs-19" vertex="1">
          <mxGeometry y="98" width="180" height="42" as="geometry" />
        </mxCell>
        <mxCell id="F7ipalZtgVrwN4CxXCbs-23" value="Pagamento" style="swimlane;fontStyle=1;align=center;verticalAlign=top;childLayout=stackLayout;horizontal=1;startSize=26;horizontalStack=0;resizeParent=1;resizeParentMax=0;resizeLast=0;collapsible=1;marginBottom=0;whiteSpace=wrap;html=1;" parent="1" vertex="1">
          <mxGeometry x="350" y="410" width="190" height="120" as="geometry" />
        </mxCell>
        <mxCell id="F7ipalZtgVrwN4CxXCbs-24" value="- valor: double&lt;div&gt;- statusPagamento: boolean&lt;/div&gt;&lt;div&gt;&lt;br&gt;&lt;/div&gt;&lt;div&gt;&lt;br&gt;&lt;/div&gt;" style="text;strokeColor=none;fillColor=none;align=left;verticalAlign=top;spacingLeft=4;spacingRight=4;overflow=hidden;rotatable=0;points=[[0,0.5],[1,0.5]];portConstraint=eastwest;whiteSpace=wrap;html=1;" parent="F7ipalZtgVrwN4CxXCbs-23" vertex="1">
          <mxGeometry y="26" width="190" height="44" as="geometry" />
        </mxCell>
        <mxCell id="F7ipalZtgVrwN4CxXCbs-25" value="" style="line;strokeWidth=1;fillColor=none;align=left;verticalAlign=middle;spacingTop=-1;spacingLeft=3;spacingRight=3;rotatable=0;labelPosition=right;points=[];portConstraint=eastwest;strokeColor=inherit;" parent="F7ipalZtgVrwN4CxXCbs-23" vertex="1">
          <mxGeometry y="70" width="190" height="8" as="geometry" />
        </mxCell>
        <mxCell id="F7ipalZtgVrwN4CxXCbs-26" value="+ Pagamento(valor): void&lt;div&gt;+ realizarPagamento(): void&lt;/div&gt;" style="text;strokeColor=none;fillColor=none;align=left;verticalAlign=top;spacingLeft=4;spacingRight=4;overflow=hidden;rotatable=0;points=[[0,0.5],[1,0.5]];portConstraint=eastwest;whiteSpace=wrap;html=1;" parent="F7ipalZtgVrwN4CxXCbs-23" vertex="1">
          <mxGeometry y="78" width="190" height="42" as="geometry" />
        </mxCell>
        <mxCell id="F7ipalZtgVrwN4CxXCbs-27" value="Notificacao" style="swimlane;fontStyle=1;align=center;verticalAlign=top;childLayout=stackLayout;horizontal=1;startSize=26;horizontalStack=0;resizeParent=1;resizeParentMax=0;resizeLast=0;collapsible=1;marginBottom=0;whiteSpace=wrap;html=1;" parent="1" vertex="1">
          <mxGeometry x="560" y="344" width="180" height="120" as="geometry" />
        </mxCell>
        <mxCell id="F7ipalZtgVrwN4CxXCbs-28" value="- Mensagem: String&lt;div&gt;- dataEnvio : LocalDate&lt;/div&gt;" style="text;strokeColor=none;fillColor=none;align=left;verticalAlign=top;spacingLeft=4;spacingRight=4;overflow=hidden;rotatable=0;points=[[0,0.5],[1,0.5]];portConstraint=eastwest;whiteSpace=wrap;html=1;" parent="F7ipalZtgVrwN4CxXCbs-27" vertex="1">
          <mxGeometry y="26" width="180" height="44" as="geometry" />
        </mxCell>
        <mxCell id="F7ipalZtgVrwN4CxXCbs-29" value="" style="line;strokeWidth=1;fillColor=none;align=left;verticalAlign=middle;spacingTop=-1;spacingLeft=3;spacingRight=3;rotatable=0;labelPosition=right;points=[];portConstraint=eastwest;strokeColor=inherit;" parent="F7ipalZtgVrwN4CxXCbs-27" vertex="1">
          <mxGeometry y="70" width="180" height="8" as="geometry" />
        </mxCell>
        <mxCell id="F7ipalZtgVrwN4CxXCbs-30" value="+ Notificacao(mensagem, dataEnvio): void" style="text;strokeColor=none;fillColor=none;align=left;verticalAlign=top;spacingLeft=4;spacingRight=4;overflow=hidden;rotatable=0;points=[[0,0.5],[1,0.5]];portConstraint=eastwest;whiteSpace=wrap;html=1;" parent="F7ipalZtgVrwN4CxXCbs-27" vertex="1">
          <mxGeometry y="78" width="180" height="42" as="geometry" />
        </mxCell>
        <mxCell id="F7ipalZtgVrwN4CxXCbs-31" value="Prescricao" style="swimlane;fontStyle=1;align=center;verticalAlign=top;childLayout=stackLayout;horizontal=1;startSize=26;horizontalStack=0;resizeParent=1;resizeParentMax=0;resizeLast=0;collapsible=1;marginBottom=0;whiteSpace=wrap;html=1;" parent="1" vertex="1">
          <mxGeometry x="-180" y="459.5" width="270" height="250" as="geometry" />
        </mxCell>
        <mxCell id="F7ipalZtgVrwN4CxXCbs-32" value="-&amp;nbsp; consultaAssociada: Colsulta&lt;div&gt;&lt;div&gt;&amp;nbsp;- List&amp;lt;Exame&amp;gt; examesPrescritos&lt;/div&gt;&lt;div&gt;&amp;nbsp; &amp;nbsp; - List&amp;lt;String&amp;gt; medicamentos&lt;/div&gt;&lt;div&gt;&amp;nbsp; &amp;nbsp; - LocalDate dataValidade&lt;/div&gt;&lt;/div&gt;" style="text;strokeColor=none;fillColor=none;align=left;verticalAlign=top;spacingLeft=4;spacingRight=4;overflow=hidden;rotatable=0;points=[[0,0.5],[1,0.5]];portConstraint=eastwest;whiteSpace=wrap;html=1;" parent="F7ipalZtgVrwN4CxXCbs-31" vertex="1">
          <mxGeometry y="26" width="270" height="74" as="geometry" />
        </mxCell>
        <mxCell id="F7ipalZtgVrwN4CxXCbs-33" value="" style="line;strokeWidth=1;fillColor=none;align=left;verticalAlign=middle;spacingTop=-1;spacingLeft=3;spacingRight=3;rotatable=0;labelPosition=right;points=[];portConstraint=eastwest;strokeColor=inherit;" parent="F7ipalZtgVrwN4CxXCbs-31" vertex="1">
          <mxGeometry y="100" width="270" height="8" as="geometry" />
        </mxCell>
        <mxCell id="F7ipalZtgVrwN4CxXCbs-34" value="&lt;div&gt;+ Prescricao(consultaAssociada, List&amp;lt;Exame&amp;gt; examesPrescritos, List&amp;lt;String&amp;gt; medicamentos,&amp;nbsp; dataValidade)&lt;/div&gt;&lt;div&gt;&amp;nbsp; &amp;nbsp; + getConsultaAssociada(): Consulta&lt;/div&gt;&lt;div&gt;&amp;nbsp; &amp;nbsp; + getExamesPrescritos(): List&amp;lt;Exame&amp;gt;&lt;/div&gt;&lt;div&gt;&amp;nbsp; &amp;nbsp; + getMedicamentos(): List&amp;lt;String&amp;gt;&lt;/div&gt;&lt;div&gt;&amp;nbsp; &amp;nbsp; + getDataValidade(): LocalDate&lt;/div&gt;" style="text;strokeColor=none;fillColor=none;align=left;verticalAlign=top;spacingLeft=4;spacingRight=4;overflow=hidden;rotatable=0;points=[[0,0.5],[1,0.5]];portConstraint=eastwest;whiteSpace=wrap;html=1;" parent="F7ipalZtgVrwN4CxXCbs-31" vertex="1">
          <mxGeometry y="108" width="270" height="142" as="geometry" />
        </mxCell>
        <mxCell id="F7ipalZtgVrwN4CxXCbs-37" value="&lt;span style=&quot;font-weight: 700;&quot;&gt;entidades&lt;/span&gt;" style="text;html=1;align=center;verticalAlign=middle;whiteSpace=wrap;rounded=0;" parent="1" vertex="1">
          <mxGeometry x="-240" y="-50" width="60" height="30" as="geometry" />
        </mxCell>
        <mxCell id="F7ipalZtgVrwN4CxXCbs-38" value="" style="html=1;verticalAlign=bottom;endArrow=open;dashed=1;endSize=8;curved=0;rounded=0;exitX=0.017;exitY=0.071;exitDx=0;exitDy=0;exitPerimeter=0;" parent="1" source="F7ipalZtgVrwN4CxXCbs-9" edge="1">
          <mxGeometry relative="1" as="geometry">
            <mxPoint x="170" y="70" as="sourcePoint" />
            <mxPoint x="90" y="70" as="targetPoint" />
          </mxGeometry>
        </mxCell>
        <mxCell id="F7ipalZtgVrwN4CxXCbs-39" value="" style="html=1;verticalAlign=bottom;endArrow=open;dashed=1;endSize=8;curved=0;rounded=0;entryX=-0.012;entryY=0.226;entryDx=0;entryDy=0;entryPerimeter=0;exitX=1.015;exitY=0.011;exitDx=0;exitDy=0;exitPerimeter=0;" parent="1" source="F7ipalZtgVrwN4CxXCbs-10" target="F7ipalZtgVrwN4CxXCbs-6" edge="1">
          <mxGeometry relative="1" as="geometry">
            <mxPoint x="370" y="280" as="sourcePoint" />
            <mxPoint x="290" y="280" as="targetPoint" />
          </mxGeometry>
        </mxCell>
        <mxCell id="F7ipalZtgVrwN4CxXCbs-41" value="" style="endArrow=block;dashed=1;endFill=0;endSize=12;html=1;rounded=0;entryX=0.983;entryY=0.869;entryDx=0;entryDy=0;entryPerimeter=0;exitX=-0.011;exitY=0.373;exitDx=0;exitDy=0;exitPerimeter=0;" parent="1" source="F7ipalZtgVrwN4CxXCbs-12" target="F7ipalZtgVrwN4CxXCbs-15" edge="1">
          <mxGeometry width="160" relative="1" as="geometry">
            <mxPoint x="250" y="280" as="sourcePoint" />
            <mxPoint x="410" y="280" as="targetPoint" />
            <Array as="points" />
          </mxGeometry>
        </mxCell>
        <mxCell id="F7ipalZtgVrwN4CxXCbs-42" value="1" style="text;html=1;align=center;verticalAlign=middle;whiteSpace=wrap;rounded=0;" parent="1" vertex="1">
          <mxGeometry x="120" y="200" width="60" height="30" as="geometry" />
        </mxCell>
        <mxCell id="F7ipalZtgVrwN4CxXCbs-43" value="*" style="text;html=1;align=center;verticalAlign=middle;whiteSpace=wrap;rounded=0;" parent="1" vertex="1">
          <mxGeometry x="30" y="290" width="60" height="20" as="geometry" />
        </mxCell>
        <mxCell id="F7ipalZtgVrwN4CxXCbs-44" value="" style="endArrow=block;dashed=1;endFill=0;endSize=12;html=1;rounded=0;entryX=0.675;entryY=-0.014;entryDx=0;entryDy=0;entryPerimeter=0;exitX=0.465;exitY=1.035;exitDx=0;exitDy=0;exitPerimeter=0;" parent="1" source="F7ipalZtgVrwN4CxXCbs-12" target="F7ipalZtgVrwN4CxXCbs-19" edge="1">
          <mxGeometry width="160" relative="1" as="geometry">
            <mxPoint x="250" y="280" as="sourcePoint" />
            <mxPoint x="400" y="280" as="targetPoint" />
            <Array as="points" />
          </mxGeometry>
        </mxCell>
        <mxCell id="F7ipalZtgVrwN4CxXCbs-46" value="1" style="text;html=1;align=center;verticalAlign=middle;whiteSpace=wrap;rounded=0;" parent="1" vertex="1">
          <mxGeometry x="240" y="310" width="60" height="30" as="geometry" />
        </mxCell>
        <mxCell id="F7ipalZtgVrwN4CxXCbs-47" value="*" style="text;html=1;align=center;verticalAlign=middle;whiteSpace=wrap;rounded=0;" parent="1" vertex="1">
          <mxGeometry x="200" y="389" width="60" height="30" as="geometry" />
        </mxCell>
        <mxCell id="F7ipalZtgVrwN4CxXCbs-48" value="" style="endArrow=block;dashed=1;endFill=0;endSize=12;html=1;rounded=0;exitX=0.679;exitY=1.035;exitDx=0;exitDy=0;exitPerimeter=0;" parent="1" source="F7ipalZtgVrwN4CxXCbs-12" target="F7ipalZtgVrwN4CxXCbs-23" edge="1">
          <mxGeometry width="160" relative="1" as="geometry">
            <mxPoint x="334" y="340" as="sourcePoint" />
            <mxPoint x="494" y="340" as="targetPoint" />
          </mxGeometry>
        </mxCell>
        <mxCell id="F7ipalZtgVrwN4CxXCbs-50" value="1" style="text;html=1;align=center;verticalAlign=middle;whiteSpace=wrap;rounded=0;" parent="1" vertex="1">
          <mxGeometry x="330" y="310" width="60" height="30" as="geometry" />
        </mxCell>
        <mxCell id="F7ipalZtgVrwN4CxXCbs-51" value="*" style="text;html=1;align=center;verticalAlign=middle;whiteSpace=wrap;rounded=0;" parent="1" vertex="1">
          <mxGeometry x="370" y="370" width="60" height="30" as="geometry" />
        </mxCell>
        <mxCell id="F7ipalZtgVrwN4CxXCbs-52" value="" style="endArrow=block;dashed=1;endFill=0;endSize=12;html=1;rounded=0;entryX=0.122;entryY=0.003;entryDx=0;entryDy=0;entryPerimeter=0;" parent="1" target="F7ipalZtgVrwN4CxXCbs-19" edge="1">
          <mxGeometry width="160" relative="1" as="geometry">
            <mxPoint x="50" y="360" as="sourcePoint" />
            <mxPoint x="210" y="360" as="targetPoint" />
          </mxGeometry>
        </mxCell>
        <mxCell id="F7ipalZtgVrwN4CxXCbs-53" value="1" style="text;html=1;align=center;verticalAlign=middle;whiteSpace=wrap;rounded=0;" parent="1" vertex="1">
          <mxGeometry x="30" y="340" width="60" height="30" as="geometry" />
        </mxCell>
        <mxCell id="F7ipalZtgVrwN4CxXCbs-54" value="*" style="text;html=1;align=center;verticalAlign=middle;whiteSpace=wrap;rounded=0;" parent="1" vertex="1">
          <mxGeometry x="90" y="389" width="60" height="30" as="geometry" />
        </mxCell>
        <mxCell id="F7ipalZtgVrwN4CxXCbs-56" value="" style="endArrow=block;dashed=1;endFill=0;endSize=12;html=1;rounded=0;entryX=0.596;entryY=-0.008;entryDx=0;entryDy=0;entryPerimeter=0;exitX=0.7;exitY=0.975;exitDx=0;exitDy=0;exitPerimeter=0;" parent="1" source="F7ipalZtgVrwN4CxXCbs-17" target="F7ipalZtgVrwN4CxXCbs-31" edge="1">
          <mxGeometry width="160" relative="1" as="geometry">
            <mxPoint x="50" y="344" as="sourcePoint" />
            <mxPoint x="210" y="344" as="targetPoint" />
            <Array as="points" />
          </mxGeometry>
        </mxCell>
        <mxCell id="F7ipalZtgVrwN4CxXCbs-58" value="1" style="text;html=1;align=center;verticalAlign=middle;whiteSpace=wrap;rounded=0;" parent="1" vertex="1">
          <mxGeometry x="-40" y="400" width="60" height="30" as="geometry" />
        </mxCell>
        <mxCell id="F7ipalZtgVrwN4CxXCbs-60" value="1" style="text;html=1;align=center;verticalAlign=middle;whiteSpace=wrap;rounded=0;" parent="1" vertex="1">
          <mxGeometry x="-40" y="440" width="60" height="30" as="geometry" />
        </mxCell>
        <mxCell id="SPzFXQYLhUO0ee0zL4o8-7" value="" style="endArrow=open;endFill=1;endSize=12;html=1;rounded=0;exitX=1.021;exitY=-0.017;exitDx=0;exitDy=0;exitPerimeter=0;" parent="1" source="F7ipalZtgVrwN4CxXCbs-17" edge="1">
          <mxGeometry width="160" relative="1" as="geometry">
            <mxPoint x="250" y="320" as="sourcePoint" />
            <mxPoint x="55" y="327" as="targetPoint" />
            <Array as="points">
              <mxPoint x="570" y="400" />
            </Array>
          </mxGeometry>
        </mxCell>
        <mxCell id="SPzFXQYLhUO0ee0zL4o8-8" value="" style="endArrow=open;endFill=1;endSize=12;html=1;rounded=0;exitX=0;exitY=0.5;exitDx=0;exitDy=0;entryX=0.992;entryY=0.636;entryDx=0;entryDy=0;entryPerimeter=0;" parent="1" source="F7ipalZtgVrwN4CxXCbs-28" target="F7ipalZtgVrwN4CxXCbs-12" edge="1">
          <mxGeometry width="160" relative="1" as="geometry">
            <mxPoint x="250" y="320" as="sourcePoint" />
            <mxPoint x="410" y="320" as="targetPoint" />
          </mxGeometry>
        </mxCell>
      </root>
    </mxGraphModel>
  </diagram>
</mxfile>
